M48
;GenerationSoftware,Autodesk,EAGLE,9.2.2*%
;CreationDate,2019-02-06T14:27:48Z*%
FMAT,2
ICI,OFF
METRIC,TZ,000.000
T3C0.254
T2C0.356
T1C1.600
%
G90
M71
T1
X19896Y25179
X14816Y25179
T2
X17320Y13857
X17322Y15013
X18296Y17141
X19477Y17135
X19581Y13832
X18565Y13832
X24178Y20842
X21689Y21426
X19377Y19801
X24635Y4688
X10767Y22010
X30426Y11317
X6982Y9920
X10747Y13850
X9706Y12656
X16894Y8033
X21613Y7380
X14127Y3667
X5890Y14238
X20749Y18429
X7160Y6872
X4620Y20080
X9192Y16016
X27480Y13603
X23924Y23001
X26870Y17591
X29893Y16524
X29004Y9666
X18590Y2554
X28471Y20639
X8481Y17540
X14196Y22493
X8227Y21096
X28953Y15711
X13764Y18810
T3
X17628Y9576
M30