G04 EAGLE Gerber RS-274X export*
G75*
%MOMM*%
%FSLAX34Y34*%
%LPD*%
%INSilkscreen Bottom*%
%IPPOS*%
%AMOC8*
5,1,8,0,0,1.08239X$1,22.5*%
G01*
%ADD10C,0.152400*%
%ADD11C,0.101600*%
%ADD12C,0.076200*%
%ADD13C,0.127000*%
%ADD14C,0.254000*%


D10*
X223590Y60054D02*
X223590Y76324D01*
X223590Y68189D02*
X212743Y68189D01*
X212743Y76324D02*
X212743Y60054D01*
X207218Y62766D02*
X207218Y73612D01*
X204507Y76324D01*
X199084Y76324D01*
X196372Y73612D01*
X196372Y62766D01*
X199084Y60054D01*
X204507Y60054D01*
X207218Y62766D01*
X196372Y73612D01*
X190847Y62766D02*
X188135Y60054D01*
X182712Y60054D01*
X180000Y62766D01*
X180000Y73612D01*
X182712Y76324D01*
X188135Y76324D01*
X190847Y73612D01*
X190847Y70901D01*
X188135Y68189D01*
X180000Y68189D01*
X174475Y60054D02*
X174475Y76324D01*
X166340Y76324D01*
X163629Y73612D01*
X163629Y68189D01*
X166340Y65477D01*
X174475Y65477D01*
X169052Y65477D02*
X163629Y60054D01*
X158104Y62766D02*
X158104Y73612D01*
X155392Y76324D01*
X149969Y76324D01*
X147257Y73612D01*
X147257Y62766D01*
X149969Y60054D01*
X155392Y60054D01*
X158104Y62766D01*
X147257Y73612D01*
X141732Y73612D02*
X141732Y62766D01*
X141732Y73612D02*
X139021Y76324D01*
X133597Y76324D01*
X130886Y73612D01*
X130886Y62766D01*
X133597Y60054D01*
X139021Y60054D01*
X141732Y62766D01*
X130886Y73612D01*
D11*
X248372Y40018D02*
X247893Y37304D01*
X248372Y40018D02*
X251565Y42254D01*
X254279Y41775D01*
X258751Y35389D01*
X258272Y32675D01*
X255079Y30439D01*
X252365Y30918D01*
X250129Y34111D01*
X253322Y36346D01*
X250289Y27085D02*
X243582Y36664D01*
X243903Y22614D01*
X237196Y32193D01*
X234003Y29957D02*
X240710Y20378D01*
X235921Y17024D01*
X233206Y17503D01*
X228735Y23889D01*
X229213Y26603D01*
X234003Y29957D01*
X322054Y138291D02*
X320105Y140240D01*
X322054Y138291D02*
X322054Y134393D01*
X320105Y132444D01*
X312309Y132444D01*
X310360Y134393D01*
X310360Y138291D01*
X312309Y140240D01*
X316207Y140240D01*
X316207Y136342D01*
X310360Y144138D02*
X322054Y144138D01*
X310360Y151934D01*
X322054Y151934D01*
X322054Y155832D02*
X310360Y155832D01*
X310360Y161679D01*
X312309Y163628D01*
X320105Y163628D01*
X322054Y161679D01*
X322054Y155832D01*
X256273Y271590D02*
X253559Y271112D01*
X256273Y271590D02*
X259466Y269355D01*
X259945Y266640D01*
X255473Y260254D01*
X252759Y259775D01*
X249566Y262011D01*
X249087Y264726D01*
X251323Y267919D01*
X254516Y265683D01*
X251484Y274944D02*
X244776Y265365D01*
X238390Y269836D02*
X251484Y274944D01*
X245097Y279416D02*
X238390Y269836D01*
X235197Y272072D02*
X241904Y281651D01*
X235197Y272072D02*
X230408Y275426D01*
X229929Y278140D01*
X234400Y284526D01*
X237115Y285005D01*
X241904Y281651D01*
X108672Y283858D02*
X108193Y281144D01*
X108672Y283858D02*
X111865Y286094D01*
X114579Y285615D01*
X119051Y279229D01*
X118572Y276515D01*
X115379Y274279D01*
X112665Y274758D01*
X110429Y277951D01*
X113622Y280186D01*
X110589Y270925D02*
X103882Y280504D01*
X104203Y266454D01*
X97496Y276033D01*
X94303Y273797D02*
X101010Y264218D01*
X96221Y260864D01*
X93506Y261343D01*
X89035Y267729D01*
X89513Y270443D01*
X94303Y273797D01*
X35625Y142018D02*
X37574Y140069D01*
X37574Y136171D01*
X35625Y134222D01*
X27829Y134222D01*
X25880Y136171D01*
X25880Y140069D01*
X27829Y142018D01*
X31727Y142018D01*
X31727Y138120D01*
X25880Y145916D02*
X37574Y145916D01*
X25880Y153712D01*
X37574Y153712D01*
X37574Y157610D02*
X25880Y157610D01*
X25880Y163457D01*
X27829Y165406D01*
X35625Y165406D01*
X37574Y163457D01*
X37574Y157610D01*
X115891Y25748D02*
X118605Y26226D01*
X121798Y23991D01*
X122277Y21276D01*
X117805Y14890D01*
X115091Y14411D01*
X111898Y16647D01*
X111419Y19362D01*
X113655Y22555D01*
X116848Y20319D01*
X113816Y29580D02*
X107108Y20001D01*
X100722Y24472D02*
X113816Y29580D01*
X107429Y34052D02*
X100722Y24472D01*
X97529Y26708D02*
X104236Y36287D01*
X97529Y26708D02*
X92740Y30062D01*
X92261Y32776D01*
X96732Y39162D01*
X99447Y39641D01*
X104236Y36287D01*
D10*
X281166Y213370D02*
X281166Y231165D01*
X272268Y231165D01*
X269302Y228199D01*
X269302Y222268D01*
X272268Y219302D01*
X281166Y219302D01*
X263391Y225233D02*
X257459Y231165D01*
X257459Y213370D01*
X263391Y213370D02*
X251527Y213370D01*
X278461Y93523D02*
X278461Y75728D01*
X278461Y93523D02*
X269563Y93523D01*
X266597Y90557D01*
X266597Y84626D01*
X269563Y81660D01*
X278461Y81660D01*
X260686Y75728D02*
X248822Y75728D01*
X248822Y87591D02*
X260686Y75728D01*
X248822Y87591D02*
X248822Y90557D01*
X251788Y93523D01*
X257720Y93523D01*
X260686Y90557D01*
X242911Y90557D02*
X231047Y78694D01*
X231047Y90557D02*
X242911Y78694D01*
X242911Y84626D02*
X231047Y84626D01*
X236979Y90557D02*
X236979Y78694D01*
X191986Y40287D02*
X191986Y22492D01*
X191986Y40287D02*
X183088Y40287D01*
X180122Y37321D01*
X180122Y31390D01*
X183088Y28424D01*
X191986Y28424D01*
X174211Y37321D02*
X171245Y40287D01*
X165313Y40287D01*
X162347Y37321D01*
X162347Y34355D01*
X165313Y31390D01*
X168279Y31390D01*
X165313Y31390D02*
X162347Y28424D01*
X162347Y25458D01*
X165313Y22492D01*
X171245Y22492D01*
X174211Y25458D01*
X83982Y91850D02*
X83982Y109645D01*
X75084Y109645D01*
X72118Y106679D01*
X72118Y100748D01*
X75084Y97782D01*
X83982Y97782D01*
X57309Y91850D02*
X57309Y109645D01*
X66207Y100748D01*
X54343Y100748D01*
X101054Y211976D02*
X101054Y229771D01*
X92156Y229771D01*
X89190Y226805D01*
X89190Y220874D01*
X92156Y217908D01*
X101054Y217908D01*
X83279Y229771D02*
X71415Y229771D01*
X83279Y229771D02*
X83279Y220874D01*
X77347Y223839D01*
X74381Y223839D01*
X71415Y220874D01*
X71415Y214942D01*
X74381Y211976D01*
X80313Y211976D01*
X83279Y214942D01*
X283685Y239916D02*
X283685Y257711D01*
X274787Y257711D01*
X271821Y254745D01*
X271821Y251779D01*
X274787Y248814D01*
X271821Y245848D01*
X271821Y242882D01*
X274787Y239916D01*
X283685Y239916D01*
X283685Y248814D02*
X274787Y248814D01*
X320515Y190401D02*
X320515Y172606D01*
X320515Y190401D02*
X311617Y190401D01*
X308651Y187435D01*
X308651Y181504D01*
X311617Y178538D01*
X320515Y178538D01*
X314583Y178538D02*
X308651Y172606D01*
X93585Y166668D02*
X93585Y184463D01*
X93585Y166668D02*
X84687Y166668D01*
X81721Y169634D01*
X81721Y181497D01*
X84687Y184463D01*
X93585Y184463D01*
X81549Y206671D02*
X84515Y209637D01*
X90447Y209637D01*
X93413Y206671D01*
X93413Y194808D01*
X90447Y191842D01*
X84515Y191842D01*
X81549Y194808D01*
D12*
X256464Y206134D02*
X258032Y207702D01*
X261167Y207702D01*
X262735Y206134D01*
X262735Y199864D01*
X261167Y198296D01*
X258032Y198296D01*
X256464Y199864D01*
X253380Y204567D02*
X250244Y207702D01*
X250244Y198296D01*
X247109Y198296D02*
X253380Y198296D01*
D10*
X246163Y108383D02*
X266293Y108383D01*
D12*
X260444Y109573D02*
X258876Y108005D01*
X260444Y109573D02*
X263579Y109573D01*
X265147Y108005D01*
X265147Y101735D01*
X263579Y100167D01*
X260444Y100167D01*
X258876Y101735D01*
X255792Y100167D02*
X249521Y100167D01*
X255792Y100167D02*
X249521Y106438D01*
X249521Y108005D01*
X251089Y109573D01*
X254224Y109573D01*
X255792Y108005D01*
D13*
X208200Y180000D02*
X203200Y185000D01*
X138200Y115010D02*
X138200Y115000D01*
X212970Y177650D02*
X212972Y177739D01*
X212978Y177828D01*
X212988Y177917D01*
X213002Y178005D01*
X213019Y178092D01*
X213041Y178178D01*
X213067Y178264D01*
X213096Y178348D01*
X213129Y178431D01*
X213165Y178512D01*
X213206Y178592D01*
X213249Y178669D01*
X213296Y178745D01*
X213347Y178818D01*
X213400Y178889D01*
X213457Y178958D01*
X213517Y179024D01*
X213580Y179088D01*
X213645Y179148D01*
X213713Y179206D01*
X213784Y179260D01*
X213857Y179311D01*
X213932Y179359D01*
X214009Y179404D01*
X214088Y179445D01*
X214169Y179482D01*
X214251Y179516D01*
X214335Y179547D01*
X214420Y179573D01*
X214506Y179596D01*
X214593Y179614D01*
X214681Y179629D01*
X214770Y179640D01*
X214859Y179647D01*
X214948Y179650D01*
X215037Y179649D01*
X215126Y179644D01*
X215214Y179635D01*
X215303Y179622D01*
X215390Y179605D01*
X215477Y179585D01*
X215563Y179560D01*
X215647Y179532D01*
X215730Y179500D01*
X215812Y179464D01*
X215892Y179425D01*
X215970Y179382D01*
X216046Y179336D01*
X216120Y179286D01*
X216192Y179233D01*
X216261Y179177D01*
X216328Y179118D01*
X216392Y179056D01*
X216453Y178992D01*
X216512Y178924D01*
X216567Y178854D01*
X216619Y178782D01*
X216668Y178707D01*
X216713Y178631D01*
X216755Y178552D01*
X216793Y178472D01*
X216828Y178390D01*
X216859Y178306D01*
X216887Y178221D01*
X216910Y178135D01*
X216930Y178048D01*
X216946Y177961D01*
X216958Y177872D01*
X216966Y177784D01*
X216970Y177695D01*
X216970Y177605D01*
X216966Y177516D01*
X216958Y177428D01*
X216946Y177339D01*
X216930Y177252D01*
X216910Y177165D01*
X216887Y177079D01*
X216859Y176994D01*
X216828Y176910D01*
X216793Y176828D01*
X216755Y176748D01*
X216713Y176669D01*
X216668Y176593D01*
X216619Y176518D01*
X216567Y176446D01*
X216512Y176376D01*
X216453Y176308D01*
X216392Y176244D01*
X216328Y176182D01*
X216261Y176123D01*
X216192Y176067D01*
X216120Y176014D01*
X216046Y175964D01*
X215970Y175918D01*
X215892Y175875D01*
X215812Y175836D01*
X215730Y175800D01*
X215647Y175768D01*
X215563Y175740D01*
X215477Y175715D01*
X215390Y175695D01*
X215303Y175678D01*
X215214Y175665D01*
X215126Y175656D01*
X215037Y175651D01*
X214948Y175650D01*
X214859Y175653D01*
X214770Y175660D01*
X214681Y175671D01*
X214593Y175686D01*
X214506Y175704D01*
X214420Y175727D01*
X214335Y175753D01*
X214251Y175784D01*
X214169Y175818D01*
X214088Y175855D01*
X214009Y175896D01*
X213932Y175941D01*
X213857Y175989D01*
X213784Y176040D01*
X213713Y176094D01*
X213645Y176152D01*
X213580Y176212D01*
X213517Y176276D01*
X213457Y176342D01*
X213400Y176411D01*
X213347Y176482D01*
X213296Y176555D01*
X213249Y176631D01*
X213206Y176708D01*
X213165Y176788D01*
X213129Y176869D01*
X213096Y176952D01*
X213067Y177036D01*
X213041Y177122D01*
X213019Y177208D01*
X213002Y177295D01*
X212988Y177383D01*
X212978Y177472D01*
X212972Y177561D01*
X212970Y177650D01*
X138240Y185010D02*
X138240Y185020D01*
X142940Y185020D01*
X142900Y115010D02*
X138200Y115010D01*
X138240Y180320D02*
X138240Y185010D01*
X138190Y119700D02*
X138190Y115000D01*
X203520Y115000D02*
X208220Y115000D01*
X208220Y114990D02*
X208220Y119690D01*
D12*
X162585Y195573D02*
X162585Y203411D01*
X162585Y195573D02*
X161018Y194005D01*
X157882Y194005D01*
X156315Y195573D01*
X156315Y203411D01*
X153230Y200276D02*
X150095Y203411D01*
X150095Y194005D01*
X153230Y194005D02*
X146960Y194005D01*
D14*
X219614Y179210D02*
X219614Y143650D01*
X239934Y143650D01*
X239934Y179210D01*
X219614Y179210D01*
D12*
X252078Y153175D02*
X258349Y162581D01*
X252078Y162581D02*
X258349Y153175D01*
X248994Y159446D02*
X245858Y162581D01*
X245858Y153175D01*
X242723Y153175D02*
X248994Y153175D01*
X234021Y261887D02*
X234021Y271293D01*
X229318Y271293D01*
X227750Y269725D01*
X227750Y266590D01*
X229318Y265022D01*
X234021Y265022D01*
X230886Y265022D02*
X227750Y261887D01*
X224666Y261887D02*
X218395Y261887D01*
X224666Y261887D02*
X218395Y268158D01*
X218395Y269725D01*
X219963Y271293D01*
X223098Y271293D01*
X224666Y269725D01*
D10*
X115339Y176774D02*
X95209Y176774D01*
D12*
X107174Y173713D02*
X108741Y175281D01*
X111877Y175281D01*
X113444Y173713D01*
X113444Y167443D01*
X111877Y165875D01*
X108741Y165875D01*
X107174Y167443D01*
X104089Y173713D02*
X102521Y175281D01*
X99386Y175281D01*
X97818Y173713D01*
X97818Y172146D01*
X99386Y170578D01*
X100954Y170578D01*
X99386Y170578D02*
X97818Y169010D01*
X97818Y167443D01*
X99386Y165875D01*
X102521Y165875D01*
X104089Y167443D01*
D10*
X106157Y118593D02*
X86027Y118593D01*
D12*
X99661Y127485D02*
X101228Y129053D01*
X104364Y129053D01*
X105931Y127485D01*
X105931Y121215D01*
X104364Y119647D01*
X101228Y119647D01*
X99661Y121215D01*
X91873Y119647D02*
X91873Y129053D01*
X96576Y124350D01*
X90306Y124350D01*
X237260Y107927D02*
X238828Y109495D01*
X241963Y109495D01*
X243531Y107927D01*
X243531Y101657D01*
X241963Y100089D01*
X238828Y100089D01*
X237260Y101657D01*
X234175Y109495D02*
X227905Y109495D01*
X234175Y109495D02*
X234175Y104792D01*
X231040Y106360D01*
X229472Y106360D01*
X227905Y104792D01*
X227905Y101657D01*
X229472Y100089D01*
X232608Y100089D01*
X234175Y101657D01*
X128746Y175535D02*
X127178Y173967D01*
X128746Y175535D02*
X131881Y175535D01*
X133449Y173967D01*
X133449Y167697D01*
X131881Y166129D01*
X128746Y166129D01*
X127178Y167697D01*
X120958Y173967D02*
X117823Y175535D01*
X120958Y173967D02*
X124094Y170832D01*
X124094Y167697D01*
X122526Y166129D01*
X119391Y166129D01*
X117823Y167697D01*
X117823Y169264D01*
X119391Y170832D01*
X124094Y170832D01*
X123326Y128545D02*
X121759Y126977D01*
X123326Y128545D02*
X126462Y128545D01*
X128029Y126977D01*
X128029Y120707D01*
X126462Y119139D01*
X123326Y119139D01*
X121759Y120707D01*
X118674Y128545D02*
X112404Y128545D01*
X112404Y126977D01*
X118674Y120707D01*
X118674Y119139D01*
X191115Y206478D02*
X189547Y208045D01*
X191115Y206478D02*
X191115Y203342D01*
X189547Y201775D01*
X183277Y201775D01*
X181709Y203342D01*
X181709Y206478D01*
X183277Y208045D01*
X189547Y211130D02*
X191115Y212697D01*
X191115Y215833D01*
X189547Y217401D01*
X187980Y217401D01*
X186412Y215833D01*
X184844Y217401D01*
X183277Y217401D01*
X181709Y215833D01*
X181709Y212697D01*
X183277Y211130D01*
X184844Y211130D01*
X186412Y212697D01*
X187980Y211130D01*
X189547Y211130D01*
X186412Y212697D02*
X186412Y215833D01*
X233519Y215369D02*
X235086Y216937D01*
X238222Y216937D01*
X239789Y215369D01*
X239789Y209099D01*
X238222Y207531D01*
X235086Y207531D01*
X233519Y209099D01*
X230434Y209099D02*
X228867Y207531D01*
X225731Y207531D01*
X224164Y209099D01*
X224164Y215369D01*
X225731Y216937D01*
X228867Y216937D01*
X230434Y215369D01*
X230434Y213802D01*
X228867Y212234D01*
X224164Y212234D01*
X287287Y137181D02*
X287287Y127775D01*
X287287Y137181D02*
X282584Y137181D01*
X281017Y135613D01*
X281017Y132478D01*
X282584Y130910D01*
X287287Y130910D01*
X284152Y130910D02*
X281017Y127775D01*
X277932Y135613D02*
X276365Y137181D01*
X273229Y137181D01*
X271662Y135613D01*
X271662Y134046D01*
X273229Y132478D01*
X274797Y132478D01*
X273229Y132478D02*
X271662Y130910D01*
X271662Y129343D01*
X273229Y127775D01*
X276365Y127775D01*
X277932Y129343D01*
M02*
