G04 EAGLE Gerber RS-274X export*
G75*
%MOMM*%
%FSLAX34Y34*%
%LPD*%
%INSilkscreen Top*%
%IPPOS*%
%AMOC8*
5,1,8,0,0,1.08239X$1,22.5*%
G01*
%ADD10C,0.152400*%
%ADD11C,0.101600*%
%ADD12R,0.014731X0.014731*%
%ADD13R,0.147319X0.014731*%
%ADD14R,0.265175X0.014731*%
%ADD15R,0.383031X0.014731*%
%ADD16R,0.515619X0.014731*%
%ADD17R,0.633475X0.014731*%
%ADD18R,0.751331X0.014731*%
%ADD19R,0.883919X0.014731*%
%ADD20R,1.001775X0.014731*%
%ADD21R,1.119631X0.014731*%
%ADD22R,1.134363X0.014731*%
%ADD23R,1.149094X0.014731*%
%ADD24R,1.163825X0.014731*%
%ADD25R,1.178556X0.014731*%
%ADD26R,1.193288X0.014731*%
%ADD27R,1.222756X0.014731*%
%ADD28R,1.237488X0.014731*%
%ADD29R,1.266950X0.014731*%
%ADD30R,1.281681X0.014731*%
%ADD31R,1.311144X0.014731*%
%ADD32R,1.325881X0.014731*%
%ADD33R,1.355344X0.014731*%
%ADD34R,1.370075X0.014731*%
%ADD35R,1.384806X0.014731*%
%ADD36R,1.399538X0.014731*%
%ADD37R,1.414275X0.014731*%
%ADD38R,1.443738X0.014731*%
%ADD39R,1.458469X0.014731*%
%ADD40R,1.487931X0.014731*%
%ADD41R,1.502663X0.014731*%
%ADD42R,1.517394X0.014731*%
%ADD43R,1.532125X0.014731*%
%ADD44R,1.546856X0.014731*%
%ADD45R,1.576319X0.014731*%
%ADD46R,1.605788X0.014731*%
%ADD47R,1.620519X0.014731*%
%ADD48R,1.649981X0.014731*%
%ADD49R,1.664713X0.014731*%
%ADD50R,1.694175X0.014731*%
%ADD51R,1.708913X0.014731*%
%ADD52R,1.738375X0.014731*%
%ADD53R,1.753106X0.014731*%
%ADD54R,1.767838X0.014731*%
%ADD55R,1.782569X0.014731*%
%ADD56R,1.797306X0.014731*%
%ADD57R,0.117856X0.014731*%
%ADD58R,1.826769X0.014731*%
%ADD59R,0.235713X0.014731*%
%ADD60R,0.353569X0.014731*%
%ADD61R,1.856231X0.014731*%
%ADD62R,0.486156X0.014731*%
%ADD63R,1.870963X0.014731*%
%ADD64R,0.604013X0.014731*%
%ADD65R,0.721869X0.014731*%
%ADD66R,1.885694X0.014731*%
%ADD67R,0.839719X0.014731*%
%ADD68R,0.972306X0.014731*%
%ADD69R,1.090169X0.014731*%
%ADD70R,1.208025X0.014731*%
%ADD71R,1.252219X0.014731*%
%ADD72R,1.296412X0.014731*%
%ADD73R,1.340612X0.014731*%
%ADD74R,1.826763X0.014731*%
%ADD75R,1.414269X0.014731*%
%ADD76R,1.812031X0.014731*%
%ADD77R,1.429000X0.014731*%
%ADD78R,1.458462X0.014731*%
%ADD79R,1.473200X0.014731*%
%ADD80R,1.723644X0.014731*%
%ADD81R,1.694181X0.014731*%
%ADD82R,1.679450X0.014731*%
%ADD83R,1.561594X0.014731*%
%ADD84R,1.576325X0.014731*%
%ADD85R,1.591056X0.014731*%
%ADD86R,1.635250X0.014731*%
%ADD87R,1.561588X0.014731*%
%ADD88R,1.443731X0.014731*%
%ADD89R,1.797300X0.014731*%
%ADD90R,1.841500X0.014731*%
%ADD91R,1.311150X0.014731*%
%ADD92R,1.296419X0.014731*%
%ADD93R,1.193294X0.014731*%
%ADD94R,0.957575X0.014731*%
%ADD95R,0.589281X0.014731*%
%ADD96R,0.471425X0.014731*%
%ADD97R,0.220975X0.014731*%
%ADD98R,1.812038X0.014731*%
%ADD99R,0.103119X0.014731*%
%ADD100R,0.029463X0.014731*%
%ADD101R,0.162050X0.014731*%
%ADD102R,0.397763X0.014731*%
%ADD103R,0.648206X0.014731*%
%ADD104R,1.679444X0.014731*%
%ADD105R,1.016506X0.014731*%
%ADD106R,1.104900X0.014731*%
%ADD107R,1.222750X0.014731*%
%ADD108R,1.429006X0.014731*%
%ADD109R,1.208019X0.014731*%
%ADD110R,0.987044X0.014731*%
%ADD111R,0.854456X0.014731*%
%ADD112R,0.618744X0.014731*%
%ADD113R,0.500888X0.014731*%
%ADD114R,0.368300X0.014731*%
%ADD115R,0.132587X0.014731*%
%ADD116R,1.664719X0.014731*%
%ADD117R,1.075438X0.014731*%
%ADD118R,0.942844X0.014731*%
%ADD119R,0.707131X0.014731*%
%ADD120R,0.456694X0.014731*%
%ADD121R,0.088388X0.014731*%
%ADD122C,0.127000*%
%ADD123C,0.076200*%
%ADD124C,0.100000*%
%ADD125C,0.340000*%
%ADD126C,0.200000*%
%ADD127R,12.200000X0.930000*%


D10*
X252194Y206642D02*
X252194Y224437D01*
X261092Y224437D01*
X264057Y221471D01*
X264057Y215540D01*
X261092Y212574D01*
X252194Y212574D01*
X269969Y218505D02*
X275901Y224437D01*
X275901Y206642D01*
X281832Y206642D02*
X269969Y206642D01*
X242542Y96929D02*
X242542Y79134D01*
X242542Y96929D02*
X251440Y96929D01*
X254405Y93963D01*
X254405Y88032D01*
X251440Y85066D01*
X242542Y85066D01*
X260317Y79134D02*
X272180Y79134D01*
X260317Y79134D02*
X272180Y90997D01*
X272180Y93963D01*
X269214Y96929D01*
X263283Y96929D01*
X260317Y93963D01*
X278092Y93963D02*
X289955Y82100D01*
X278092Y82100D02*
X289955Y93963D01*
X289955Y88032D02*
X278092Y88032D01*
X284023Y93963D02*
X284023Y82100D01*
X160754Y42827D02*
X160754Y25032D01*
X160754Y42827D02*
X169652Y42827D01*
X172617Y39861D01*
X172617Y33930D01*
X169652Y30964D01*
X160754Y30964D01*
X178529Y39861D02*
X181495Y42827D01*
X187426Y42827D01*
X190392Y39861D01*
X190392Y36895D01*
X187426Y33930D01*
X184461Y33930D01*
X187426Y33930D02*
X190392Y30964D01*
X190392Y27998D01*
X187426Y25032D01*
X181495Y25032D01*
X178529Y27998D01*
X63726Y79896D02*
X63726Y97691D01*
X72624Y97691D01*
X75589Y94725D01*
X75589Y88794D01*
X72624Y85828D01*
X63726Y85828D01*
X90398Y79896D02*
X90398Y97691D01*
X81501Y88794D01*
X93364Y88794D01*
X66266Y210452D02*
X66266Y228247D01*
X75164Y228247D01*
X78129Y225281D01*
X78129Y219350D01*
X75164Y216384D01*
X66266Y216384D01*
X84041Y228247D02*
X95904Y228247D01*
X84041Y228247D02*
X84041Y219350D01*
X89973Y222315D01*
X92938Y222315D01*
X95904Y219350D01*
X95904Y213418D01*
X92938Y210452D01*
X87007Y210452D01*
X84041Y213418D01*
D11*
X81375Y265370D02*
X81854Y268085D01*
X85047Y270320D01*
X87761Y269842D01*
X88879Y268245D01*
X88401Y265531D01*
X86804Y264413D01*
X88401Y265531D02*
X91115Y265052D01*
X92233Y263456D01*
X91754Y260741D01*
X88561Y258505D01*
X85847Y258984D01*
X94308Y267288D02*
X89836Y273674D01*
X94308Y267288D02*
X99737Y266331D01*
X100694Y271759D01*
X96223Y278146D01*
X100533Y278785D02*
X101012Y281499D01*
X104205Y283735D01*
X106920Y283256D01*
X108037Y281660D01*
X107559Y278945D01*
X105962Y277828D01*
X107559Y278945D02*
X110273Y278467D01*
X111391Y276870D01*
X110913Y274156D01*
X107719Y271920D01*
X105005Y272399D01*
X242235Y280789D02*
X244949Y281268D01*
X248142Y279032D01*
X248621Y276318D01*
X247503Y274721D01*
X244789Y274243D01*
X243192Y275360D01*
X244789Y274243D02*
X245267Y271528D01*
X244149Y269932D01*
X241435Y269453D01*
X238242Y271689D01*
X237763Y274403D01*
X248460Y269292D02*
X252932Y275678D01*
X248460Y269292D02*
X249418Y263864D01*
X254846Y264821D01*
X259318Y271207D01*
X261393Y267375D02*
X264108Y267853D01*
X267301Y265617D01*
X267779Y262903D01*
X266661Y261306D01*
X263947Y260828D01*
X262350Y261946D01*
X263947Y260828D02*
X264426Y258113D01*
X263308Y256517D01*
X260593Y256038D01*
X257400Y258274D01*
X256922Y260988D01*
X310858Y136963D02*
X312807Y135014D01*
X310858Y136963D02*
X310858Y140861D01*
X312807Y142810D01*
X314756Y142810D01*
X316705Y140861D01*
X316705Y138912D01*
X316705Y140861D02*
X318654Y142810D01*
X320603Y142810D01*
X322552Y140861D01*
X322552Y136963D01*
X320603Y135014D01*
X318654Y146708D02*
X310858Y146708D01*
X318654Y146708D02*
X322552Y150606D01*
X318654Y154504D01*
X310858Y154504D01*
X312807Y158402D02*
X310858Y160351D01*
X310858Y164249D01*
X312807Y166198D01*
X314756Y166198D01*
X316705Y164249D01*
X316705Y162300D01*
X316705Y164249D02*
X318654Y166198D01*
X320603Y166198D01*
X322552Y164249D01*
X322552Y160351D01*
X320603Y158402D01*
X230190Y26277D02*
X229711Y23562D01*
X230190Y26277D02*
X233383Y28512D01*
X236097Y28034D01*
X237215Y26437D01*
X236737Y23723D01*
X235140Y22605D01*
X236737Y23723D02*
X239451Y23244D01*
X240569Y21648D01*
X240090Y18933D01*
X236897Y16697D01*
X234183Y17176D01*
X242644Y25480D02*
X238172Y31866D01*
X242644Y25480D02*
X248073Y24523D01*
X249030Y29951D01*
X244559Y36338D01*
X248869Y36977D02*
X249348Y39691D01*
X252541Y41927D01*
X255256Y41448D01*
X256373Y39852D01*
X255895Y37137D01*
X254298Y36020D01*
X255895Y37137D02*
X258609Y36659D01*
X259727Y35062D01*
X259249Y32348D01*
X256055Y30112D01*
X253341Y30591D01*
X98645Y39460D02*
X95931Y38981D01*
X98645Y39460D02*
X101838Y37224D01*
X102317Y34510D01*
X101199Y32913D01*
X98485Y32435D01*
X96888Y33552D01*
X98485Y32435D02*
X98963Y29720D01*
X97845Y28124D01*
X95131Y27645D01*
X91938Y29881D01*
X91459Y32595D01*
X102156Y27484D02*
X106628Y33870D01*
X102156Y27484D02*
X103114Y22056D01*
X108542Y23013D01*
X113014Y29399D01*
X115089Y25567D02*
X117804Y26045D01*
X120997Y23809D01*
X121475Y21095D01*
X120357Y19498D01*
X117643Y19020D01*
X116046Y20138D01*
X117643Y19020D02*
X118122Y16305D01*
X117004Y14709D01*
X114289Y14230D01*
X111096Y16466D01*
X110618Y19180D01*
X26041Y134506D02*
X24092Y136455D01*
X24092Y140353D01*
X26041Y142302D01*
X27990Y142302D01*
X29939Y140353D01*
X29939Y138404D01*
X29939Y140353D02*
X31888Y142302D01*
X33837Y142302D01*
X35786Y140353D01*
X35786Y136455D01*
X33837Y134506D01*
X31888Y146200D02*
X24092Y146200D01*
X31888Y146200D02*
X35786Y150098D01*
X31888Y153996D01*
X24092Y153996D01*
X26041Y157894D02*
X24092Y159843D01*
X24092Y163741D01*
X26041Y165690D01*
X27990Y165690D01*
X29939Y163741D01*
X29939Y161792D01*
X29939Y163741D02*
X31888Y165690D01*
X33837Y165690D01*
X35786Y163741D01*
X35786Y159843D01*
X33837Y157894D01*
D12*
X217926Y132123D03*
D13*
X217411Y132271D03*
D14*
X216821Y132418D03*
D15*
X216380Y132565D03*
D16*
X215864Y132713D03*
D17*
X215422Y132860D03*
D18*
X214833Y133007D03*
D19*
X214317Y133155D03*
D20*
X213875Y133302D03*
D21*
X213433Y133449D03*
D22*
X213359Y133597D03*
D23*
X213433Y133744D03*
D24*
X213507Y133891D03*
D25*
X213433Y134039D03*
D26*
X213507Y134186D03*
D27*
X213507Y134333D03*
D28*
X213580Y134481D03*
X213580Y134628D03*
D29*
X213580Y134775D03*
D30*
X213654Y134923D03*
D31*
X213654Y135070D03*
X213654Y135217D03*
D32*
X213728Y135364D03*
D33*
X213728Y135512D03*
D34*
X213801Y135659D03*
D35*
X213728Y135806D03*
D36*
X213801Y135954D03*
D37*
X213875Y136101D03*
D38*
X213875Y136248D03*
X213875Y136396D03*
D39*
X213949Y136543D03*
D40*
X213949Y136690D03*
D41*
X214022Y136838D03*
D42*
X213949Y136985D03*
D43*
X214022Y137132D03*
D44*
X214096Y137280D03*
D45*
X214096Y137427D03*
X214096Y137574D03*
D46*
X214096Y137722D03*
D47*
X214170Y137869D03*
X214170Y138016D03*
D48*
X214170Y138164D03*
D49*
X214243Y138311D03*
D50*
X214243Y138458D03*
X214243Y138606D03*
D51*
X214317Y138753D03*
D52*
X214317Y138900D03*
D53*
X214391Y139047D03*
D54*
X214317Y139195D03*
D55*
X214391Y139342D03*
D56*
X214464Y139489D03*
D57*
X234942Y139489D03*
D58*
X214464Y139637D03*
D59*
X234353Y139637D03*
D58*
X214464Y139784D03*
D60*
X233911Y139784D03*
D61*
X214464Y139931D03*
D62*
X233395Y139931D03*
D63*
X214538Y140079D03*
D64*
X232953Y140079D03*
D63*
X214538Y140226D03*
D65*
X232364Y140226D03*
D66*
X214464Y140373D03*
D67*
X231922Y140373D03*
D66*
X214464Y140521D03*
D68*
X231406Y140521D03*
D63*
X214391Y140668D03*
D69*
X230964Y140668D03*
D66*
X214317Y140815D03*
D21*
X230817Y140815D03*
D66*
X214317Y140963D03*
D23*
X230817Y140963D03*
D66*
X214170Y141110D03*
D24*
X230891Y141110D03*
D66*
X214170Y141257D03*
D25*
X230964Y141257D03*
D63*
X214096Y141405D03*
D26*
X230891Y141405D03*
D66*
X214022Y141552D03*
D70*
X230964Y141552D03*
D66*
X214022Y141699D03*
D28*
X230964Y141699D03*
D66*
X213875Y141847D03*
D71*
X231038Y141847D03*
D66*
X213875Y141994D03*
D71*
X231038Y141994D03*
D63*
X213801Y142141D03*
D30*
X231038Y142141D03*
D66*
X213728Y142289D03*
D72*
X231112Y142289D03*
D66*
X213728Y142436D03*
D32*
X231112Y142436D03*
D66*
X213580Y142583D03*
D32*
X231112Y142583D03*
D66*
X213580Y142730D03*
D73*
X231185Y142730D03*
D63*
X213507Y142878D03*
D34*
X231185Y142878D03*
D61*
X213580Y143025D03*
D35*
X231259Y143025D03*
D61*
X213580Y143172D03*
D36*
X231185Y143172D03*
D74*
X213580Y143320D03*
D75*
X231259Y143320D03*
D76*
X213654Y143467D03*
D77*
X231332Y143467D03*
D55*
X213654Y143614D03*
D78*
X231332Y143614D03*
D55*
X213654Y143762D03*
D78*
X231332Y143762D03*
D54*
X213728Y143909D03*
D79*
X231406Y143909D03*
D52*
X213728Y144056D03*
D41*
X231406Y144056D03*
D80*
X213801Y144204D03*
D41*
X231406Y144204D03*
D51*
X213728Y144351D03*
D43*
X231406Y144351D03*
D81*
X213801Y144498D03*
D44*
X231480Y144498D03*
D82*
X213875Y144646D03*
D83*
X231553Y144646D03*
D48*
X213875Y144793D03*
D84*
X231480Y144793D03*
D48*
X213875Y144940D03*
D85*
X231553Y144940D03*
D86*
X213949Y145088D03*
D47*
X231553Y145088D03*
D46*
X213949Y145235D03*
D86*
X231627Y145235D03*
D46*
X213949Y145382D03*
D86*
X231627Y145382D03*
D84*
X213949Y145530D03*
D49*
X231627Y145530D03*
D87*
X214022Y145677D03*
D82*
X231701Y145677D03*
D44*
X214096Y145824D03*
D51*
X231701Y145824D03*
D43*
X214022Y145972D03*
D51*
X231701Y145972D03*
D42*
X214096Y146119D03*
D80*
X231774Y146119D03*
D40*
X214096Y146266D03*
D53*
X231774Y146266D03*
D79*
X214170Y146413D03*
D54*
X231848Y146413D03*
D79*
X214170Y146561D03*
D55*
X231774Y146561D03*
D88*
X214170Y146708D03*
D89*
X231848Y146708D03*
D77*
X214243Y146855D03*
D76*
X231922Y146855D03*
D36*
X214243Y147003D03*
D90*
X231922Y147003D03*
D36*
X214243Y147150D03*
D90*
X231922Y147150D03*
D35*
X214317Y147297D03*
D63*
X231922Y147297D03*
D33*
X214317Y147445D03*
D66*
X231995Y147445D03*
D73*
X214391Y147592D03*
D63*
X231922Y147592D03*
D32*
X214317Y147739D03*
D66*
X231848Y147739D03*
D91*
X214391Y147887D03*
D66*
X231848Y147887D03*
D92*
X214464Y148034D03*
D63*
X231774Y148034D03*
D29*
X214464Y148181D03*
D66*
X231701Y148181D03*
D29*
X214464Y148329D03*
D66*
X231701Y148329D03*
D71*
X214538Y148476D03*
D66*
X231553Y148476D03*
D27*
X214538Y148623D03*
D66*
X231553Y148623D03*
D70*
X214612Y148771D03*
D63*
X231480Y148771D03*
D93*
X214538Y148918D03*
D66*
X231406Y148918D03*
D25*
X214612Y149065D03*
D66*
X231406Y149065D03*
D24*
X214685Y149213D03*
D66*
X231259Y149213D03*
D23*
X214612Y149360D03*
D66*
X231259Y149360D03*
D22*
X214685Y149507D03*
D63*
X231185Y149507D03*
D69*
X214612Y149655D03*
D66*
X231112Y149655D03*
D94*
X214096Y149802D03*
D66*
X231112Y149802D03*
D67*
X213507Y149949D03*
D66*
X230964Y149949D03*
D65*
X213065Y150096D03*
D66*
X230964Y150096D03*
D95*
X212549Y150244D03*
D61*
X230964Y150244D03*
D96*
X212107Y150391D03*
D90*
X231038Y150391D03*
D60*
X211518Y150538D03*
D90*
X231038Y150538D03*
D97*
X211002Y150686D03*
D98*
X231038Y150686D03*
D99*
X210560Y150833D03*
D56*
X231112Y150833D03*
D100*
X220357Y150980D03*
D55*
X231038Y150980D03*
D101*
X219842Y151128D03*
D54*
X231112Y151128D03*
D14*
X219326Y151275D03*
D53*
X231185Y151275D03*
D102*
X218810Y151422D03*
D80*
X231185Y151422D03*
D16*
X218368Y151570D03*
D80*
X231185Y151570D03*
D103*
X217853Y151717D03*
D81*
X231185Y151717D03*
D18*
X217337Y151864D03*
D104*
X231259Y151864D03*
D19*
X216821Y152012D03*
D49*
X231332Y152012D03*
D105*
X216306Y152159D03*
D48*
X231259Y152159D03*
D106*
X215864Y152306D03*
D86*
X231332Y152306D03*
D22*
X215864Y152454D03*
D47*
X231406Y152454D03*
D23*
X215938Y152601D03*
D85*
X231406Y152601D03*
D24*
X216011Y152748D03*
D85*
X231406Y152748D03*
D25*
X215938Y152896D03*
D87*
X231406Y152896D03*
D26*
X216011Y153043D03*
D44*
X231480Y153043D03*
D107*
X216011Y153190D03*
D43*
X231553Y153190D03*
D28*
X216085Y153338D03*
D42*
X231480Y153338D03*
D28*
X216085Y153485D03*
D41*
X231553Y153485D03*
D29*
X216085Y153632D03*
D79*
X231553Y153632D03*
D30*
X216159Y153779D03*
D39*
X231627Y153779D03*
D31*
X216159Y153927D03*
D39*
X231627Y153927D03*
D31*
X216159Y154074D03*
D108*
X231627Y154074D03*
D32*
X216232Y154221D03*
D75*
X231701Y154221D03*
D33*
X216232Y154369D03*
D35*
X231701Y154369D03*
D34*
X216306Y154516D03*
D35*
X231701Y154516D03*
X216232Y154663D03*
D34*
X231774Y154663D03*
D36*
X216306Y154811D03*
D73*
X231774Y154811D03*
D75*
X216380Y154958D03*
D73*
X231774Y154958D03*
D38*
X216380Y155105D03*
D91*
X231774Y155105D03*
D38*
X216380Y155253D03*
D72*
X231848Y155253D03*
D79*
X216380Y155400D03*
D30*
X231922Y155400D03*
D40*
X216453Y155547D03*
D29*
X231848Y155547D03*
D41*
X216527Y155695D03*
D71*
X231922Y155695D03*
D42*
X216453Y155842D03*
D27*
X231922Y155842D03*
D43*
X216527Y155989D03*
D109*
X231995Y155989D03*
D87*
X216527Y156137D03*
D109*
X231995Y156137D03*
D45*
X216600Y156284D03*
D25*
X231995Y156284D03*
D45*
X216600Y156431D03*
D24*
X232069Y156431D03*
D46*
X216600Y156579D03*
D23*
X232143Y156579D03*
D47*
X216674Y156726D03*
D22*
X232069Y156726D03*
D47*
X216674Y156873D03*
D106*
X232069Y156873D03*
D48*
X216674Y157021D03*
D110*
X231627Y157021D03*
D49*
X216748Y157168D03*
D111*
X231112Y157168D03*
D50*
X216748Y157315D03*
D18*
X230596Y157315D03*
D50*
X216748Y157462D03*
D112*
X230080Y157462D03*
D51*
X216821Y157610D03*
D113*
X229638Y157610D03*
D52*
X216821Y157757D03*
D114*
X229123Y157757D03*
D53*
X216895Y157904D03*
D14*
X228607Y157904D03*
D54*
X216821Y158052D03*
D115*
X228091Y158052D03*
D55*
X216895Y158199D03*
D12*
X227649Y158199D03*
D56*
X216969Y158346D03*
D58*
X216969Y158494D03*
X216969Y158641D03*
D61*
X216969Y158788D03*
D63*
X217042Y158936D03*
X217042Y159083D03*
D66*
X216969Y159230D03*
X216969Y159378D03*
X216821Y159525D03*
X216821Y159672D03*
D63*
X216748Y159820D03*
D66*
X216674Y159967D03*
X216674Y160114D03*
X216527Y160262D03*
X216527Y160409D03*
D63*
X216453Y160556D03*
D66*
X216380Y160704D03*
X216380Y160851D03*
D63*
X216306Y160998D03*
D66*
X216232Y161145D03*
X216232Y161293D03*
X216085Y161440D03*
X216085Y161587D03*
D63*
X216011Y161735D03*
D61*
X216085Y161882D03*
X216085Y162029D03*
D74*
X216085Y162177D03*
D76*
X216159Y162324D03*
D55*
X216159Y162471D03*
X216159Y162619D03*
D54*
X216232Y162766D03*
D52*
X216232Y162913D03*
D80*
X216306Y163061D03*
D51*
X216232Y163208D03*
D81*
X216306Y163355D03*
D82*
X216380Y163503D03*
D116*
X216306Y163650D03*
D48*
X216380Y163797D03*
D47*
X216380Y163945D03*
D46*
X216453Y164092D03*
X216453Y164239D03*
D84*
X216453Y164387D03*
D87*
X216527Y164534D03*
D43*
X216527Y164681D03*
X216527Y164828D03*
D42*
X216600Y164976D03*
D40*
X216600Y165123D03*
D79*
X216674Y165270D03*
X216674Y165418D03*
D88*
X216674Y165565D03*
D77*
X216748Y165712D03*
D36*
X216748Y165860D03*
X216748Y166007D03*
D35*
X216821Y166154D03*
D33*
X216821Y166302D03*
D73*
X216895Y166449D03*
D32*
X216821Y166596D03*
D91*
X216895Y166744D03*
D92*
X216969Y166891D03*
D29*
X216969Y167038D03*
X216969Y167186D03*
D28*
X216969Y167333D03*
D27*
X217042Y167480D03*
D70*
X217116Y167628D03*
D93*
X217042Y167775D03*
D25*
X217116Y167922D03*
D23*
X217116Y168070D03*
X217116Y168217D03*
D22*
X217190Y168364D03*
D117*
X217042Y168511D03*
D118*
X216527Y168659D03*
D67*
X216011Y168806D03*
D119*
X215496Y168953D03*
D95*
X215054Y169101D03*
D120*
X214538Y169248D03*
D60*
X214022Y169395D03*
D97*
X213507Y169543D03*
D121*
X212991Y169690D03*
D122*
X46200Y117020D02*
X43700Y117020D01*
X46200Y117020D02*
X48700Y117020D01*
X46200Y117020D02*
X43700Y122020D01*
X48700Y122020D02*
X46200Y117020D01*
X48700Y122020D02*
X43700Y122020D01*
X41200Y132020D02*
X51200Y132020D01*
X51200Y107020D01*
X41200Y107020D01*
X41200Y132020D01*
D123*
X37931Y105743D02*
X28525Y105743D01*
X37931Y105743D02*
X37931Y110446D01*
X36363Y112014D01*
X30093Y112014D01*
X28525Y110446D01*
X28525Y105743D01*
X31660Y115098D02*
X28525Y118234D01*
X37931Y118234D01*
X37931Y121369D02*
X37931Y115098D01*
X283772Y120663D02*
X283772Y130069D01*
X290043Y130069D01*
X286907Y125366D02*
X283772Y125366D01*
X293127Y120663D02*
X293127Y130069D01*
X297830Y130069D01*
X299398Y128501D01*
X299398Y126934D01*
X297830Y125366D01*
X299398Y123798D01*
X299398Y122231D01*
X297830Y120663D01*
X293127Y120663D01*
X293127Y125366D02*
X297830Y125366D01*
X302482Y126934D02*
X305618Y130069D01*
X305618Y120663D01*
X308753Y120663D02*
X302482Y120663D01*
X66901Y137045D02*
X66901Y146451D01*
X71604Y146451D01*
X73172Y144883D01*
X73172Y141748D01*
X71604Y140180D01*
X66901Y140180D01*
X70036Y140180D02*
X73172Y137045D01*
X76256Y143316D02*
X79392Y146451D01*
X79392Y137045D01*
X82527Y137045D02*
X76256Y137045D01*
D10*
X47724Y153556D02*
X47724Y171351D01*
X47724Y153556D02*
X56622Y153556D01*
X59587Y156522D01*
X59587Y168385D01*
X56622Y171351D01*
X47724Y171351D01*
X57555Y200389D02*
X54590Y203355D01*
X48658Y203355D01*
X45692Y200389D01*
X45692Y188526D01*
X48658Y185560D01*
X54590Y185560D01*
X57555Y188526D01*
X268958Y234582D02*
X268958Y252377D01*
X277856Y252377D01*
X280821Y249411D01*
X280821Y246445D01*
X277856Y243480D01*
X280821Y240514D01*
X280821Y237548D01*
X277856Y234582D01*
X268958Y234582D01*
X268958Y243480D02*
X277856Y243480D01*
X305280Y188369D02*
X305280Y170574D01*
X305280Y188369D02*
X314178Y188369D01*
X317143Y185403D01*
X317143Y179472D01*
X314178Y176506D01*
X305280Y176506D01*
X311212Y176506D02*
X317143Y170574D01*
D124*
X259800Y300000D02*
X86600Y300000D01*
X86600Y0D02*
X259800Y0D01*
X0Y150000D02*
X86600Y300000D01*
X259800Y300000D02*
X346400Y150000D01*
X259800Y0D01*
X86600Y0D02*
X0Y150000D01*
D123*
X97376Y201405D02*
X97376Y210811D01*
X102079Y210811D01*
X103647Y209244D01*
X103647Y206108D01*
X102079Y204541D01*
X97376Y204541D01*
X100512Y204541D02*
X103647Y201405D01*
X106731Y209244D02*
X108299Y210811D01*
X111434Y210811D01*
X113002Y209244D01*
X113002Y207676D01*
X111434Y206108D01*
X113002Y204541D01*
X113002Y202973D01*
X111434Y201405D01*
X108299Y201405D01*
X106731Y202973D01*
X106731Y204541D01*
X108299Y206108D01*
X106731Y207676D01*
X106731Y209244D01*
X108299Y206108D02*
X111434Y206108D01*
D125*
X101655Y120136D03*
D11*
X116905Y94636D02*
X148905Y94636D01*
X148905Y126636D02*
X116905Y126636D01*
D123*
X100045Y98636D02*
X92207Y98636D01*
X100045Y98636D02*
X101613Y100204D01*
X101613Y103339D01*
X100045Y104907D01*
X92207Y104907D01*
X101613Y107991D02*
X101613Y114262D01*
X101613Y107991D02*
X95342Y114262D01*
X93775Y114262D01*
X92207Y112694D01*
X92207Y109559D01*
X93775Y107991D01*
D10*
X136236Y82952D02*
X138522Y82952D01*
X136236Y82952D02*
X130140Y82952D01*
X127854Y82952D01*
X130140Y82952D02*
X130142Y82843D01*
X130148Y82735D01*
X130157Y82626D01*
X130171Y82518D01*
X130188Y82411D01*
X130210Y82304D01*
X130235Y82198D01*
X130263Y82093D01*
X130296Y81989D01*
X130332Y81887D01*
X130372Y81786D01*
X130415Y81686D01*
X130462Y81588D01*
X130513Y81491D01*
X130567Y81397D01*
X130624Y81304D01*
X130684Y81214D01*
X130748Y81125D01*
X130815Y81039D01*
X130884Y80956D01*
X130957Y80875D01*
X131033Y80797D01*
X131111Y80721D01*
X131192Y80648D01*
X131275Y80579D01*
X131361Y80512D01*
X131450Y80448D01*
X131540Y80388D01*
X131633Y80331D01*
X131727Y80277D01*
X131824Y80226D01*
X131922Y80179D01*
X132022Y80136D01*
X132123Y80096D01*
X132225Y80060D01*
X132329Y80027D01*
X132434Y79999D01*
X132540Y79974D01*
X132647Y79952D01*
X132754Y79935D01*
X132862Y79921D01*
X132971Y79912D01*
X133079Y79906D01*
X133188Y79904D01*
X133297Y79906D01*
X133405Y79912D01*
X133514Y79921D01*
X133622Y79935D01*
X133729Y79952D01*
X133836Y79974D01*
X133942Y79999D01*
X134047Y80027D01*
X134151Y80060D01*
X134253Y80096D01*
X134354Y80136D01*
X134454Y80179D01*
X134552Y80226D01*
X134649Y80277D01*
X134743Y80331D01*
X134836Y80388D01*
X134926Y80448D01*
X135015Y80512D01*
X135101Y80579D01*
X135184Y80648D01*
X135265Y80721D01*
X135343Y80797D01*
X135419Y80875D01*
X135492Y80956D01*
X135561Y81039D01*
X135628Y81125D01*
X135692Y81214D01*
X135752Y81304D01*
X135809Y81397D01*
X135863Y81491D01*
X135914Y81588D01*
X135961Y81686D01*
X136004Y81786D01*
X136044Y81887D01*
X136080Y81989D01*
X136113Y82093D01*
X136141Y82198D01*
X136166Y82304D01*
X136188Y82411D01*
X136205Y82518D01*
X136219Y82626D01*
X136228Y82735D01*
X136234Y82843D01*
X136236Y82952D01*
X138188Y52712D02*
X128188Y52712D01*
D126*
X108904Y77110D02*
X108906Y77170D01*
X108912Y77230D01*
X108922Y77289D01*
X108935Y77347D01*
X108953Y77404D01*
X108974Y77461D01*
X108998Y77515D01*
X109027Y77568D01*
X109058Y77619D01*
X109093Y77668D01*
X109131Y77714D01*
X109172Y77758D01*
X109216Y77799D01*
X109262Y77837D01*
X109311Y77872D01*
X109362Y77903D01*
X109415Y77932D01*
X109469Y77956D01*
X109526Y77977D01*
X109583Y77995D01*
X109641Y78008D01*
X109700Y78018D01*
X109760Y78024D01*
X109820Y78026D01*
X109880Y78024D01*
X109940Y78018D01*
X109999Y78008D01*
X110057Y77995D01*
X110114Y77977D01*
X110171Y77956D01*
X110225Y77932D01*
X110278Y77903D01*
X110329Y77872D01*
X110378Y77837D01*
X110424Y77799D01*
X110468Y77758D01*
X110509Y77714D01*
X110547Y77668D01*
X110582Y77619D01*
X110613Y77568D01*
X110642Y77515D01*
X110666Y77461D01*
X110687Y77404D01*
X110705Y77347D01*
X110718Y77289D01*
X110728Y77230D01*
X110734Y77170D01*
X110736Y77110D01*
X110734Y77050D01*
X110728Y76990D01*
X110718Y76931D01*
X110705Y76873D01*
X110687Y76816D01*
X110666Y76759D01*
X110642Y76705D01*
X110613Y76652D01*
X110582Y76601D01*
X110547Y76552D01*
X110509Y76506D01*
X110468Y76462D01*
X110424Y76421D01*
X110378Y76383D01*
X110329Y76348D01*
X110278Y76317D01*
X110225Y76288D01*
X110171Y76264D01*
X110114Y76243D01*
X110057Y76225D01*
X109999Y76212D01*
X109940Y76202D01*
X109880Y76196D01*
X109820Y76194D01*
X109760Y76196D01*
X109700Y76202D01*
X109641Y76212D01*
X109583Y76225D01*
X109526Y76243D01*
X109469Y76264D01*
X109415Y76288D01*
X109362Y76317D01*
X109311Y76348D01*
X109262Y76383D01*
X109216Y76421D01*
X109172Y76462D01*
X109131Y76506D01*
X109093Y76552D01*
X109058Y76601D01*
X109027Y76652D01*
X108998Y76705D01*
X108974Y76759D01*
X108953Y76816D01*
X108935Y76873D01*
X108922Y76931D01*
X108912Y76990D01*
X108906Y77050D01*
X108904Y77110D01*
D11*
X126293Y49251D02*
X126293Y41625D01*
X127818Y40099D01*
X130869Y40099D01*
X132394Y41625D01*
X132394Y49251D01*
X135648Y47726D02*
X137173Y49251D01*
X140224Y49251D01*
X141749Y47726D01*
X141749Y46201D01*
X140224Y44675D01*
X138699Y44675D01*
X140224Y44675D02*
X141749Y43150D01*
X141749Y41625D01*
X140224Y40099D01*
X137173Y40099D01*
X135648Y41625D01*
D123*
X80894Y157419D02*
X79326Y158987D01*
X76191Y158987D01*
X74623Y157419D01*
X74623Y151149D01*
X76191Y149581D01*
X79326Y149581D01*
X80894Y151149D01*
X83978Y155852D02*
X87114Y158987D01*
X87114Y149581D01*
X90249Y149581D02*
X83978Y149581D01*
X93333Y157419D02*
X94901Y158987D01*
X98036Y158987D01*
X99604Y157419D01*
X99604Y155852D01*
X98036Y154284D01*
X96469Y154284D01*
X98036Y154284D02*
X99604Y152716D01*
X99604Y151149D01*
X98036Y149581D01*
X94901Y149581D01*
X93333Y151149D01*
X153316Y145923D02*
X154884Y144355D01*
X153316Y145923D02*
X150181Y145923D01*
X148613Y144355D01*
X148613Y138085D01*
X150181Y136517D01*
X153316Y136517D01*
X154884Y138085D01*
X157969Y142788D02*
X161104Y145923D01*
X161104Y136517D01*
X157969Y136517D02*
X164239Y136517D01*
X167324Y136517D02*
X173595Y136517D01*
X167324Y136517D02*
X173595Y142788D01*
X173595Y144355D01*
X172027Y145923D01*
X168891Y145923D01*
X167324Y144355D01*
D122*
X112756Y213794D02*
X234356Y213794D01*
X234356Y298794D01*
X112756Y298794D02*
X112756Y213794D01*
X233556Y298794D02*
X234356Y298794D01*
X233556Y298794D02*
X211556Y298794D01*
X112756Y298794D01*
D127*
X173356Y294044D03*
D123*
X109602Y242518D02*
X100196Y242518D01*
X100196Y247221D01*
X101764Y248789D01*
X104899Y248789D01*
X106467Y247221D01*
X106467Y242518D01*
X101764Y251873D02*
X100196Y253441D01*
X100196Y256576D01*
X101764Y258144D01*
X103332Y258144D01*
X104899Y256576D01*
X104899Y255009D01*
X104899Y256576D02*
X106467Y258144D01*
X108035Y258144D01*
X109602Y256576D01*
X109602Y253441D01*
X108035Y251873D01*
X201796Y122895D02*
X203364Y121327D01*
X201796Y122895D02*
X198661Y122895D01*
X197093Y121327D01*
X197093Y115057D01*
X198661Y113489D01*
X201796Y113489D01*
X203364Y115057D01*
X206448Y119760D02*
X209584Y122895D01*
X209584Y113489D01*
X212719Y113489D02*
X206448Y113489D01*
X220506Y113489D02*
X220506Y122895D01*
X215803Y118192D01*
X222074Y118192D01*
X86851Y67951D02*
X86851Y58545D01*
X86851Y67951D02*
X91554Y67951D01*
X93122Y66383D01*
X93122Y63248D01*
X91554Y61680D01*
X86851Y61680D01*
X89987Y61680D02*
X93122Y58545D01*
X100910Y58545D02*
X100910Y67951D01*
X96207Y63248D01*
X102477Y63248D01*
X146736Y199973D02*
X146736Y209379D01*
X151439Y209379D01*
X153007Y207812D01*
X153007Y204676D01*
X151439Y203109D01*
X146736Y203109D01*
X149872Y203109D02*
X153007Y199973D01*
X156091Y209379D02*
X162362Y209379D01*
X156091Y209379D02*
X156091Y204676D01*
X159227Y206244D01*
X160794Y206244D01*
X162362Y204676D01*
X162362Y201541D01*
X160794Y199973D01*
X157659Y199973D01*
X156091Y201541D01*
X117716Y201029D02*
X117716Y210435D01*
X122419Y210435D01*
X123987Y208868D01*
X123987Y205732D01*
X122419Y204165D01*
X117716Y204165D01*
X120852Y204165D02*
X123987Y201029D01*
X130207Y208868D02*
X133342Y210435D01*
X130207Y208868D02*
X127071Y205732D01*
X127071Y202597D01*
X128639Y201029D01*
X131774Y201029D01*
X133342Y202597D01*
X133342Y204165D01*
X131774Y205732D01*
X127071Y205732D01*
X169696Y163297D02*
X171264Y161729D01*
X169696Y163297D02*
X166561Y163297D01*
X164993Y161729D01*
X164993Y155459D01*
X166561Y153891D01*
X169696Y153891D01*
X171264Y155459D01*
X174348Y160162D02*
X177484Y163297D01*
X177484Y153891D01*
X180619Y153891D02*
X174348Y153891D01*
X183703Y155459D02*
X183703Y161729D01*
X185271Y163297D01*
X188406Y163297D01*
X189974Y161729D01*
X189974Y155459D01*
X188406Y153891D01*
X185271Y153891D01*
X183703Y155459D01*
X189974Y161729D01*
M02*
